<svg xmlns="http://www.w3.org/2000/svg" version="1.1" viewBox="-5.0 -10.0 110.0 135.0">
 <path d="m43.125 28.242v-24.395c0-2.1211-1.7266-3.8477-3.8477-3.8477h-31.441c-2.1211 0-3.8477 1.7266-3.8477 3.8477v24.395c0 2.1211 1.7266 3.8477 3.8477 3.8477h4.9297l5.7891 6.7539c0.71094 0.88281 2.2344 0.3125 2.1992-0.8125v-5.9414h18.52c2.125 0 3.8516-1.7266 3.8516-3.8477zm-23.617 1.3477c-0.69141 0-1.25 0.55859-1.25 1.25v3.8125l-3.9609-4.625c-0.23828-0.27734-0.58594-0.4375-0.94922-0.4375h-5.5117c-0.74219 0-1.3477-0.60547-1.3477-1.3477l0.003907-24.395c0-0.74219 0.60547-1.3477 1.3477-1.3477h31.441c0.74219 0 1.3477 0.60547 1.3477 1.3477v24.395c0 0.74219-0.60547 1.3477-1.3477 1.3477z"/>
 <path d="m33.418 6.8711c-0.53516-0.4375-1.3203-0.35938-1.7578 0.17188l-10.816 13.188-6.1836-6.7773c-0.46484-0.51172-1.2578-0.54688-1.7656-0.082031-0.51172 0.46484-0.54688 1.2578-0.082031 1.7656l7.1562 7.8438c0.48438 0.55859 1.4336 0.53125 1.8906-0.050781l11.734-14.305c0.4375-0.53125 0.35938-1.3164-0.17578-1.7539z"/>
 <path d="m92.164 0h-31.617c-2.1211 0-3.8477 1.7266-3.8477 3.8477v24.395c0 2.1211 1.7266 3.8477 3.8477 3.8477h18.52v5.9414c-0.035156 1.125 1.4883 1.6953 2.1992 0.8125l5.7891-6.7539h5.1094c2.1211 0 3.8477-1.7266 3.8477-3.8477l-0.003907-24.395c0-2.1211-1.7227-3.8477-3.8438-3.8477zm1.3438 28.242c0 0.74219-0.60547 1.3477-1.3477 1.3477h-5.6836c-0.36328 0-0.71094 0.16016-0.94922 0.4375l-3.9648 4.625v-3.8125c0-0.69141-0.55859-1.25-1.25-1.25h-19.77c-0.74219 0-1.3477-0.60547-1.3477-1.3477l0.003907-24.395c0-0.74219 0.60547-1.3477 1.3477-1.3477h31.617c0.74219 0 1.3477 0.60547 1.3477 1.3477z"/>
 <path d="m84.832 7.1562c-0.48828-0.48828-1.2812-0.48828-1.7695 0l-6.2656 6.2695-6.2695-6.2695c-0.48828-0.48828-1.2812-0.48828-1.7695 0-0.48828 0.48828-0.48828 1.2812 0 1.7695l6.2695 6.2695-6.2695 6.2695c-0.48828 0.48828-0.48828 1.2812 0 1.7695 0.48828 0.48828 1.2812 0.48828 1.7695 0l6.2695-6.2695 6.2695 6.2695c0.48828 0.48828 1.2812 0.48828 1.7695 0 0.48828-0.48828 0.48828-1.2812 0-1.7695l-6.2695-6.2695 6.2695-6.2695c0.48437-0.48828 0.48437-1.2812-0.003907-1.7695z"/>
 <path d="m74.617 50.77c-0.007813-1.4336-0.015626-2.9141-0.003907-4.3516 0-4.5117-3.6719-8.1797-8.1836-8.1797l-39.793 0.003907c-0.69922-0.015626-1.3008 0.625-1.25 1.3203 0.26172 4.6328 2.6992 8.3789 7.0781 10.922-2.3008 2.5586-3.5 6.0039-2.9297 9.4297 0.03125 0.94141 1.0508 4.5 0.43359 5.3281l-3.0469 5.6289c-1.6562 3.4062 1.3047 6.1562 4.7422 5.6641v8.3242c0 2.9961 2.4375 5.4336 5.4336 5.4336h3.6562v8.457c0 0.69141 0.55859 1.25 1.25 1.25h24.613c0.69141 0 1.25-0.55859 1.25-1.25v-14.926c6.8555-9.543 6.8008-21.492 6.75-33.055zm-31.355 46.73v-8.457c0-0.69141-0.55859-1.25-1.25-1.25h-4.9062c-1.6172 0-2.9336-1.3164-2.9336-2.9336v-9.5586c0-0.68359-0.55078-1.2422-1.2344-1.25l-2.6562-0.03125c-1.1055-0.125-1.582-0.92969-1.1523-1.9609l3.0469-5.6289c1.1328-1.6836 0.011719-5.0859-0.16406-6.9102-0.55469-3.0039 0.84766-5.8555 2.8438-8.0195h14.059c1.0273 0.33594 1.6133 1.4492 1.4219 2.4961l-0.058594 4.8555c-0.125 3.5039 2.9453 6.625 6.4531 6.5625 0.45312-0.13672 3.0547 0.37891 3.5469 0.45313 1.7344 0.22656 1.5 1.5273 1.332 3.3945-0.70312 4.1914 0.46484 5.6562 1.9453 7.0156 1.7852 1.0234 1.3711 5.3945 1.8203 7.2266v13.996z"/>
<text x="0.0" y="117.5" font-size="5.0" font-weight="bold" font-family="Arbeit Regular, Helvetica, Arial-Unicode, Arial, Sans-serif" fill="#000000">Created by SBTS</text><text x="0.0" y="122.5" font-size="5.0" font-weight="bold" font-family="Arbeit Regular, Helvetica, Arial-Unicode, Arial, Sans-serif" fill="#000000">from Noun Project</text></svg>