<svg xmlns="http://www.w3.org/2000/svg" version="1.1" viewBox="-5.0 -10.0 110.0 135.0">
 <path d="m23.871 6.25h52.254c2.9688 0 5.3711 2.9688 5.3711 5.3711v12.465c0 2.9688-2.4062 5.3711-5.3711 5.3711h-52.254c-2.9688 0-5.3711-2.9688-5.3711-5.3711v-12.465c0-2.9688 2.4062-5.3711 5.3711-5.3711z"/>
 <path d="m23.871 34.082h18.297c2.9688 0 5.3711 2.9688 5.3711 5.3711v25.621c0 2.9688-2.4062 5.3711-5.3711 5.3711h-18.297c-2.9688 0-5.3711-2.9688-5.3711-5.3711v-25.621c0-2.9688 2.4062-5.3711 5.3711-5.3711z"/>
 <path d="m57.828 34.082h18.297c2.9688 0 5.3711 2.9688 5.3711 5.3711v16.777c0 2.9688-2.4062 5.3711-5.3711 5.3711h-18.297c-2.9688 0-5.3711-2.9688-5.3711-5.3711v-16.777c0-2.9688 2.4062-5.3711 5.3711-5.3711z"/>
 <path d="m57.828 66.227h18.297c2.9688 0 5.3711 2.9688 5.3711 5.3711v16.777c0 2.9688-2.4062 5.3711-5.3711 5.3711h-18.297c-2.9688 0-5.3711-2.9688-5.3711-5.3711v-16.777c0-2.9688 2.4062-5.3711 5.3711-5.3711z"/>
 <path d="m23.871 75.051h18.297c2.9688 0 5.3711 2.9688 5.3711 5.3711v7.3086c0 2.9688-2.4062 5.3711-5.3711 5.3711h-18.297c-2.9688 0-5.3711-2.9688-5.3711-5.3711v-7.3086c0-2.9688 2.4062-5.3711 5.3711-5.3711z"/>
</svg>