<svg xmlns="http://www.w3.org/2000/svg" version="1.1" viewBox="-5.0 -10.0 110.0 135.0">
 <path d="m7.5586 19.938h46.688v-5.3711c0-3.8516-3.1562-7.0078-7.0078-7.0078h-32.672c-3.8516 0-7.0078 3.1562-7.0078 7.0078zm46.688 2.5508h-46.688v52.227h46.688v-2.2695c-1.875-1.625-2.1289-4.4805-0.46875-6.3828-4.1094-1.0977-4.5039-6.2695-1.582-8.6406-1.7188-1.8789-1.6367-4.8945 0.082032-6.8086l-8.7305-2.3398c-3.8242-1.0234-4.4727-6.5898-0.97656-8.8789 1.0312-0.67578 2.2812-0.92969 3.5078-0.60547l8.1719 2.1875v-18.492zm0 54.777h-46.688v8.168c0 3.8516 3.1562 7.0078 7.0078 7.0078h32.668c3.8516 0 7.0078-3.1562 7.0078-7.0078v-8.168zm-41.992-8.9102c-1.6797 0-1.6797-2.5508 0-2.5508 0.75781 0 2.2695-0.16406 2.2695 1.2734 0 1.4414-1.5117 1.2734-2.2695 1.2734zm6.6055 0c-1.6797 0-1.6797-2.5508 0-2.5508 0.75781 0 2.2695-0.16406 2.2695 1.2734 0 1.4414-1.5117 1.2734-2.2695 1.2734zm6.6055 0c-1.6797 0-1.6797-2.5508 0-2.5508 0.75781 0 2.2695-0.16406 2.2695 1.2734 0 1.4414-1.5117 1.2734-2.2695 1.2734zm6.6055 0c-1.6797 0-1.6797-2.5508 0-2.5508 0.75781 0 2.2695-0.16406 2.2695 1.2734 0 1.4414-1.5117 1.2734-2.2695 1.2734zm6.6055 0c-1.6797 0-1.6797-2.5508 0-2.5508 0.75781 0 2.2695-0.16406 2.2695 1.2734 0 1.4414-1.5117 1.2734-2.2695 1.2734zm6.6055 0c-1.6797 0-1.6797-2.5508 0-2.5508 0.75781 0 2.2695-0.16406 2.2695 1.2734 0 1.4414-1.5117 1.2734-2.2695 1.2734zm13.066-3.7031-4.1289-1.1055c-2.4961-0.66797-1.2734-5.2305 1.2227-4.5586l6.9375 1.8594c1.6172 0.43359 2.2773-2.0273 0.65625-2.4609l-8.0977-2.168c-2.3984-0.71875-1.582-4.4883 0.60547-4.6289 0.69141-0.042969 9.1055 2.3438 10.496 2.7148 1.6172 0.43359 2.2773-2.0273 0.65625-2.4609l-22.508-6.0312c-2.5078-0.67188-1.2812-5.1836 1.1719-4.5742l27.641 7.4062c1.3398 0.35938 2.2109-1.1992 1.2969-2.1133l-7.6289-7.6289c-2.4844-2.707 1.3516-6.1953 3.8047-3.7891l14.051 13.789c0.15234 0.16406 0.35547 0.29297 0.58594 0.35938l7.0469 1.9883-6.4648 24.125-7.707-2.0078c-1.0039-0.29688-5.4688 1.6055-6.1875 1.6172l-15.125-4.0547c-2.5078-0.67188-1.4766-4.4766 1.0195-3.8125l3.8633 1.0352c1.6172 0.43359 2.2773-2.0273 0.65625-2.4609l-3.8594-1.0352zm13.137 12.879-14.699-3.9375v11.84c0 5.2617-4.3008 9.5586-9.5586 9.5586h-32.66c-5.2617 0-9.5586-4.3008-9.5586-9.5586v-70.867c0-5.2578 4.3008-9.5586 9.5586-9.5586h32.668c5.2617 0 9.5586 4.3008 9.5586 9.5586v27.098l12.348 3.3086-4.2656-4.2695c-3.2773-3.2812-0.95312-8.918 3.6836-8.918 1.332 0 2.6758 0.50781 3.7031 1.5156l13.855 13.598 7.9297 2.2383c0.67969 0.17969 1.082 0.87891 0.90234 1.5586l-7.1172 26.555c-0.17969 0.67188-0.87109 1.0781-1.5469 0.90234l-8.6602-2.2578c-0.62891 0.011719-5.2422 1.875-6.1328 1.6406zm-33.82-65.059c1.6797 0 1.6797 2.5508 0 2.5508h-12.453c-1.6797 0-1.6797-2.5508 0-2.5508zm-6.7656 66.551c5.1641 0 7.7891 6.2812 4.1211 9.9492-3.6719 3.6719-9.9492 1.0312-9.9492-4.1211 0-3.2188 2.6094-5.8281 5.8281-5.8281zm2.3203 3.5117c0.58984 0.55469 0.96094 1.4414 0.96094 2.3203 0 2.9258-3.5508 4.3711-5.5977 2.3242-3.0547-3.0547 1.582-7.6992 4.6367-4.6406zm4.6016-38.117c0.73828 1.6523-2.5195 3.5469-2.8945-1.1914-0.42188-5.3438 5.875-8.8359 6.5781-6.1719 0.57031 2.1719-2.9414 0.94531-3.9062 4.543-0.25391 0.94141-0.17188 1.9453 0.22266 2.8164zm1.5781 6.7734c1.6211 0.43359 0.96094 2.8945-0.65625 2.4609-9.9102-2.6523-11.336-16.043-2.6602-20.824 2.5-1.418 5.5391-1.8945 8.5312-1.0938 1.6211 0.43359 0.96094 2.8945-0.65625 2.4609-7.7227-2.0664-13.781 6.3906-9.9023 12.898 1.125 1.9492 2.9961 3.4727 5.3438 4.1016zm-1.1836 4.4219c1.6211 0.43359 0.96094 2.8945-0.65625 2.4609-4.0938-1.0977-7.5508-3.75-9.668-7.418-4.3945-7.6094-1.7812-17.359 5.8242-21.75 3.5312-2.0391 7.8398-2.7305 12.082-1.5938 1.6211 0.43359 0.96094 2.8945-0.65625 2.4609-7.1406-1.9102-14.469 2.3125-16.387 9.457-1.9102 7.1367 2.3125 14.469 9.457 16.387zm-25.961-29.574h8.8594c0.70312 0 1.2734 0.57031 1.2734 1.2734v6.668c0 0.70312-0.57031 1.2734-1.2734 1.2734h-8.8594c-0.70312 0-1.2734-0.57031-1.2734-1.2734v-6.668c0-0.70312 0.57031-1.2734 1.2734-1.2734zm7.5859 2.5508v4.1172h-6.3086v-4.1172zm-7.5859 11.996c-1.6797 0-1.6797-2.5508 0-2.5508 0.76953 0 2.293-0.17188 2.293 1.2734 0 1.4453-1.5234 1.2734-2.293 1.2734zm5.3984 0c-1.6797 0-1.6797-2.5508 0-2.5508h3.4609c1.6797 0 1.6797 2.5508 0 2.5508zm-5.3984 5.9727c-1.6797 0-1.6797-2.5508 0-2.5508h8.8594c1.6797 0 1.6797 2.5508 0 2.5508zm0 5.9727c-1.6797 0-1.6797-2.5508 0-2.5508h8.8594c1.6797 0 1.6797 2.5508 0 2.5508zm0 5.9727c-1.6797 0-1.6797-2.5508 0-2.5508h8.8594c1.6797 0 1.6797 2.5508 0 2.5508z" fill-rule="evenodd"/>
</svg>