<svg xmlns="http://www.w3.org/2000/svg" version="1.1" viewBox="-5.0 -10.0 110.0 135.0">
 <path d="m78.18 8.5h-56.359c-4.0391 0-7.3203 3.2812-7.3203 7.3203v54.359c0 4.0391 3.2812 7.3203 7.3203 7.3203h16.68v12.5c0 0.57031 0.32812 1.1016 0.83984 1.3516 0.21094 0.10156 0.42969 0.14844 0.66016 0.14844 0.32812 0 0.64844-0.10938 0.92188-0.32031l17.59-13.68h19.672c4.0391 0 7.3203-3.2812 7.3203-7.3203l-0.003906-54.359c0-4.0391-3.2812-7.3203-7.3203-7.3203zm4.3203 61.68c0 2.3789-1.9414 4.3203-4.3203 4.3203h-20.18c-0.32812 0-0.66016 0.10938-0.92188 0.32031l-15.578 12.109v-10.93c0-0.82812-0.67188-1.5-1.5-1.5h-18.18c-2.3789 0-4.3203-1.9414-4.3203-4.3203v-54.359c0-2.3789 1.9414-4.3203 4.3203-4.3203h56.359c2.3789 0 4.3203 1.9414 4.3203 4.3203zm-17.512-34.758c0.26172 6.8711-4.1602 13.031-10.75 14.969-0.62109 0.17969-1.2383 0.71875-1.2383 1.5v3.1094c0 1.6602-1.3398 3-3 3s-3-1.3398-3-3v-3.1094c0-3.3594 2.2305-6.2812 5.5508-7.25 3.9492-1.1602 6.6016-4.8594 6.4414-8.9883-0.17188-4.5898-4.0508-8.4688-8.6406-8.6406-2.4492-0.10156-4.8203 0.80078-6.5898 2.5117-1.7812 1.707-2.7617 4.0078-2.7617 6.4766 0 1.6602-1.3398 3-3 3s-3-1.3398-3-3c0-4.1094 1.6289-7.9492 4.6016-10.809 2.9609-2.8516 6.8594-4.3398 10.98-4.1797 7.7891 0.29688 14.109 6.6289 14.406 14.41zm-12.867 26.457c0.55859 0.5625 0.87891 1.332 0.87891 2.1211s-0.32031 1.5586-0.87891 2.1211c-0.5625 0.55859-1.332 0.87891-2.1211 0.87891s-1.5586-0.32031-2.1211-0.87891c-0.55859-0.5625-0.87891-1.332-0.87891-2.1211s0.32031-1.5586 0.87891-2.1211c1.1211-1.1172 3.1211-1.1172 4.2422 0z"/>
</svg>