<svg xmlns="http://www.w3.org/2000/svg" xmlns:xlink="http://www.w3.org/1999/xlink" version="1.1" x="0px" y="0px" viewBox="0 0 100 125" style="enable-background:new 0 0 100 100;" xml:space="preserve"><path d="M45.4,47.5H32.8c-1.2,0-2.1-0.9-2.1-2.1V32.8c0-1.2,0.9-2.1,2.1-2.1h12.6c1.2,0,2.1,0.9,2.1,2.1v12.6  C47.5,46.5,46.5,47.5,45.4,47.5z M34.9,43.3h8.4v-8.4h-8.4V43.3z"/><path d="M67.2,47.5H54.6c-1.2,0-2.1-0.9-2.1-2.1V32.8c0-1.2,0.9-2.1,2.1-2.1h12.6c1.2,0,2.1,0.9,2.1,2.1v12.6  C69.3,46.5,68.3,47.5,67.2,47.5z M56.7,43.3h8.4v-8.4h-8.4V43.3z"/><path d="M45.4,69.3H32.8c-1.2,0-2.1-0.9-2.1-2.1V54.6c0-1.2,0.9-2.1,2.1-2.1h12.6c1.2,0,2.1,0.9,2.1,2.1v12.6  C47.5,68.4,46.5,69.3,45.4,69.3z M34.9,65.1h8.4v-8.4h-8.4V65.1z"/><path d="M67.2,69.3H54.6c-1.2,0-2.1-0.9-2.1-2.1V54.6c0-1.2,0.9-2.1,2.1-2.1h12.6c1.2,0,2.1,0.9,2.1,2.1v12.6  C69.3,68.4,68.3,69.3,67.2,69.3z M56.7,65.1h8.4v-8.4h-8.4V65.1z"/><text x="0" y="115" fill="#000000" font-size="5px" font-weight="bold" font-family="'Helvetica Neue', Helvetica, Arial-Unicode, Arial, Sans-serif">Created by Jan Klever</text><text x="0" y="120" fill="#000000" font-size="5px" font-weight="bold" font-family="'Helvetica Neue', Helvetica, Arial-Unicode, Arial, Sans-serif">from the Noun Project</text></svg>