<svg xmlns="http://www.w3.org/2000/svg" version="1.1" viewBox="-5.0 -10.0 110.0 135.0">
 <path d="m12.5 57.812h25c4.3125 0 7.8125-3.5 7.8125-7.8125v-37.5c0-4.3125-3.5-7.8125-7.8125-7.8125h-25c-4.3125 0-7.8125 3.5-7.8125 7.8125v37.5c0 4.3125 3.5 7.8125 7.8125 7.8125zm-4.6875-45.312c0-2.5938 2.0938-4.6875 4.6875-4.6875h25c2.5938 0 4.6875 2.0938 4.6875 4.6875v37.5c0 2.5938-2.0938 4.6875-4.6875 4.6875h-25c-2.5938 0-4.6875-2.0938-4.6875-4.6875z"/>
 <path d="m12.5 95.312h25c4.3125 0 7.8125-3.5 7.8125-7.8125v-12.5c0-4.3125-3.5-7.8125-7.8125-7.8125h-25c-4.3125 0-7.8125 3.5-7.8125 7.8125v12.5c0 4.3125 3.5 7.8125 7.8125 7.8125zm-4.6875-20.312c0-2.5938 2.0938-4.6875 4.6875-4.6875h25c2.5938 0 4.6875 2.0938 4.6875 4.6875v12.5c0 2.5938-2.0938 4.6875-4.6875 4.6875h-25c-2.5938 0-4.6875-2.0938-4.6875-4.6875z"/>
 <path d="m87.5 42.188h-25c-4.3125 0-7.8125 3.5-7.8125 7.8125v37.5c0 4.3125 3.5 7.8125 7.8125 7.8125h25c4.3125 0 7.8125-3.5 7.8125-7.8125v-37.5c0-4.3125-3.5-7.8125-7.8125-7.8125zm4.6875 45.312c0 2.5938-2.0938 4.6875-4.6875 4.6875h-25c-2.5938 0-4.6875-2.0938-4.6875-4.6875v-37.5c0-2.5938 2.0938-4.6875 4.6875-4.6875h25c2.5938 0 4.6875 2.0938 4.6875 4.6875z"/>
 <path d="m87.5 4.6875h-25c-4.3125 0-7.8125 3.5-7.8125 7.8125v12.5c0 4.3125 3.5 7.8125 7.8125 7.8125h25c4.3125 0 7.8125-3.5 7.8125-7.8125v-12.5c0-4.3125-3.5-7.8125-7.8125-7.8125zm4.6875 20.312c0 2.5938-2.0938 4.6875-4.6875 4.6875h-25c-2.5938 0-4.6875-2.0938-4.6875-4.6875v-12.5c0-2.5938 2.0938-4.6875 4.6875-4.6875h25c2.5938 0 4.6875 2.0938 4.6875 4.6875z"/>
</svg>