<svg xmlns="http://www.w3.org/2000/svg" xmlns:xlink="http://www.w3.org/1999/xlink" xml:space="preserve" version="1.1" style="shape-rendering:geometricPrecision;text-rendering:geometricPrecision;image-rendering:optimizeQuality;" viewBox="0 0 333 416.25" x="0px" y="0px" fill-rule="evenodd" clip-rule="evenodd"><defs><style type="text/css">
   
    .fil0 {fill:black}
   
  </style></defs><g><path class="fil0" d="M167 74c5,0 11,1 16,1l0 -14 -33 0 0 14c6,0 11,-1 17,-1zm-56 179c-14,-14 -23,-34 -23,-56 0,-44 35,-79 79,-79l0 79 -56 56zm84 -176c54,13 94,62 94,120 0,68 -55,123 -122,123 -68,0 -123,-55 -123,-123 0,-58 40,-107 95,-120l0 -16 -6 0c-8,0 -15,-6 -15,-14l0 -19c0,-8 7,-15 15,-15l68 0c8,0 14,7 14,15l0 19c0,8 -6,14 -14,14l-6 0 0 16zm6 -27c1,0 3,-2 3,-3l0 -19c0,-2 -2,-3 -3,-3l-68 0c-2,0 -3,1 -3,3l0 19c0,1 1,3 3,3 22,0 45,0 68,0zm-34 45c56,0 102,46 102,102 0,57 -46,102 -102,102 -57,0 -103,-46 -103,-102 0,-56 46,-102 103,-102zm0 11c-50,0 -91,41 -91,91 0,50 41,91 91,91 50,0 90,-41 90,-91 0,-50 -40,-91 -90,-91zm0 -20c-62,0 -112,50 -112,111 0,62 50,111 112,111 61,0 111,-49 111,-111 0,-61 -50,-111 -111,-111z"/></g><text x="0" y="348" fill="#000000" font-size="5px" font-weight="bold" font-family="'Helvetica Neue', Helvetica, Arial-Unicode, Arial, Sans-serif">Created by emka angelina</text><text x="0" y="353" fill="#000000" font-size="5px" font-weight="bold" font-family="'Helvetica Neue', Helvetica, Arial-Unicode, Arial, Sans-serif">from the Noun Project</text></svg>