<svg xmlns="http://www.w3.org/2000/svg" version="1.1" viewBox="-5.0 -10.0 110.0 135.0">
 <path d="m17.719 93.18h16.719c1.5508 0 2.8203-1.2695 2.8203-2.8203v-29.898c0-1.5508 1.2695-2.8203 2.8203-2.8203h19.859c1.5508 0 2.8203 1.2695 2.8203 2.8203v29.898c0 1.5508 1.2695 2.8203 2.8203 2.8203h16.719c1.5508 0 2.8203-1.2695 2.8203-2.8203v-43.352l-35.102-28.98-35.117 28.992v43.352c0 1.5508 1.2695 2.8203 2.8203 2.8203zm68.852-47.371-35.961-29.691c-0.33984-0.28906-0.85156-0.30078-1.1992-0.011719l-35.98 29.703h-6.4609c-0.87109 0-1.6094-0.51953-1.9102-1.3398-0.28906-0.82031-0.050782-1.6992 0.62109-2.25l41.742-34.469c1.5117-1.25 3.6484-1.25 5.1719 0l41.738 34.461c0.67188 0.55859 0.91016 1.4297 0.62109 2.25-0.28906 0.82031-1.0391 1.3398-1.9102 1.3398h-6.4609z" fill-rule="evenodd"/>
</svg>