<svg xmlns="http://www.w3.org/2000/svg" xmlns:xlink="http://www.w3.org/1999/xlink" version="1.1" x="0px" y="0px" viewBox="0 0 1024 1280" enable-background="new 0 0 1024 1024" xml:space="preserve"><g><g><g><g><path d="M466.4,457.3c-12.7,0-25.4,0-38,0c-30.3,0-60.6,0-90.8,0c-36.8,0-73.6,0-110.4,0c-31.7,0-63.4,0-95.1,0      c-15.5,0-31.1-0.8-46.6,0c-0.2,0-0.4,0-0.7,0c5.9,5.9,11.8,11.8,17.7,17.7c0-12.3,0-24.5,0-36.8c0-29.2,0-58.3,0-87.5      c0-34.7,0-69.4,0-104c0-28.7,0-57.4,0-86.1c0-8.7,0-17.4,0-26.1c0-2.3,0-4.5,0-6.8c0-0.5,0-1.1,0-1.6c0-0.1,0-0.2,0-0.3      c0,0,0,0,0-0.1c0-0.1,0-1.3,0-1.4c0-3.1,0.1,0.7-0.2,0.6c-0.1,0,1-4.5,1-4.6c0.2-0.6,0.5-1.3,0.6-1.9c0,0.2-1.5,2.9-0.5,1.2      c0.7-1.1,1.2-2.3,1.9-3.4c0.3-0.6,0.7-1.1,1.1-1.6c-1.1,1.8-1.5,1.6,0,0c0.9-0.9,1.8-1.9,2.7-2.7c0.5-0.4,1-0.8,1.5-1.3      c-0.3,0.2-2.6,1.5-1,0.9c1.3-0.5,2.7-1.6,4-2.3c0.5-0.3,2.3-0.7,0.3-0.2c-2.3,0.6,0.6-0.1,1-0.2c1.3-0.3,2.6-0.6,3.9-0.9      c2.1-0.5-1.3,0.3-1.3,0.2c0-0.1,2.4-0.1,2.8-0.1c0.1,0,0.1,0,0.2,0c0.4,0,0.9,0,1.3,0c5.6,0,11.2,0,16.8,0c25.2,0,50.4,0,75.6,0      c34.2,0,68.4,0,102.6,0c31.6,0,63.2,0,94.8,0c17.4,0,34.9,0,52.3,0c0.8,0,1.7,0,2.5,0c-5.9-5.9-11.8-11.8-17.7-17.7      c0,12.7,0,25.4,0,38.2c0,30.6,0,61.1,0,91.7c0,37.2,0,74.3,0,111.5c0,32,0,64,0,96c0,15.5-0.5,31.2,0,46.7c0,0.2,0,0.4,0,0.7      c0,9.3,8.1,18.1,17.7,17.7c9.6-0.4,17.7-7.8,17.7-17.7c0-12.7,0-25.4,0-38.2c0-30.6,0-61.1,0-91.7c0-37.2,0-74.3,0-111.5      c0-32,0-64,0-96c0-15.5,0.5-31.2,0-46.7c0-0.2,0-0.4,0-0.7c0-9.6-8.1-17.7-17.7-17.7c-12.5,0-25.1,0-37.6,0      c-29.7,0-59.4,0-89.1,0c-35.1,0-70.2,0-105.3,0c-28.2,0-56.5,0-84.7,0c-17.5,0-36.6-2-52.9,5.5c-18.9,8.7-29.7,28.7-29.8,48.9      c0,5.5,0,11,0,16.5c0,25.3,0,50.5,0,75.8c0,34.7,0,69.4,0,104c0,32,0,64,0,96c0,17.7,0,35.5,0,53.2c0,0.8,0,1.7,0,2.5      c0,9.6,8.1,17.7,17.7,17.7c12.7,0,25.4,0,38,0c30.3,0,60.6,0,90.8,0c36.8,0,73.6,0,110.4,0c31.7,0,63.4,0,95.1,0      c15.5,0,31.1,0.5,46.6,0c0.2,0,0.4,0,0.7,0c9.3,0,18.1-8.1,17.7-17.7C483.7,465.4,476.3,457.3,466.4,457.3z"/></g></g><g><g><path d="M557.6,492.7c12.7,0,25.4,0,38,0c30.3,0,60.6,0,90.8,0c36.8,0,73.6,0,110.4,0c31.7,0,63.4,0,95.1,0      c15.5,0,31.1,0.5,46.6,0c0.2,0,0.4,0,0.7,0c9.6,0,17.7-8.1,17.7-17.7c0-12.5,0-24.9,0-37.4c0-29.6,0-59.2,0-88.8      c0-35.2,0-70.3,0-105.5c0-28.6,0-57.2,0-85.8c0-8.2,0-16.4,0-24.6c0-7.6,0.1-15.2-2.3-22.5c-7.2-22.7-28-37.6-51.6-37.7      c-5.1,0-10.1,0-15.2,0c-24.8,0-49.6,0-74.4,0c-34.6,0-69.1,0-103.7,0c-32.1,0-64.1,0-96.2,0c-17.8,0-35.6,0-53.5,0      c-0.8,0-1.7,0-2.5,0c-9.6,0-17.7,8.1-17.7,17.7c0,12.7,0,25.4,0,38.2c0,30.6,0,61.1,0,91.7c0,37.2,0,74.3,0,111.5      c0,32,0,64,0,96c0,15.5-0.5,31.2,0,46.7c0,0.2,0,0.4,0,0.7C539.9,484.3,548,493.2,557.6,492.7c9.6-0.4,17.7-7.8,17.7-17.7      c0-12.7,0-25.4,0-38.2c0-30.6,0-61.1,0-91.7c0-37.2,0-74.3,0-111.5c0-32,0-64,0-96c0-15.5,0.8-31.2,0-46.7c0-0.2,0-0.4,0-0.7      c-5.9,5.9-11.8,11.8-17.7,17.7c12.3,0,24.6,0,37,0c29.3,0,58.5,0,87.8,0c34.6,0,69.3,0,103.9,0c28.3,0,56.7,0,85,0      c8.4,0,16.7,0,25.1,0c2,0,4.1,0,6.1,0c0.4,0,0.8,0,1.2,0c0,0,0.1,0,0.1,0c0.1,0,2.5-0.1,2.8,0.1c0,0-3.4-0.7-1.3-0.2      c1.5,0.3,3,0.7,4.5,1.1c0.4,0.1,2.6,0.6,0.4,0c-2.3-0.6,0.2,0.1,0.9,0.5c1.1,0.6,2.2,1.5,3.4,2c1.6,0.6-0.7-0.6-1-0.9      c0.5,0.4,1,0.8,1.5,1.3c1.3,1.2,2.4,2.5,3.6,3.7c1.4,1.4-0.7-0.8-0.8-1c0.3,0.6,0.7,1.1,1.1,1.6c0.6,1.1,1.2,2.3,1.9,3.4      c1,1.7-0.5-1-0.5-1.2c0.2,0.8,0.6,1.7,0.8,2.5c0.2,0.6,0.3,1.3,0.5,2c0.1,0.6,0.2,3.3,0.2,1c0-2.1-0.1,1.1-0.1,2.2      c0,0.6,0,1.1,0,1.7c0,6,0,12,0,18c0,25.7,0,51.3,0,77c0,34.3,0,68.6,0,102.9c0,31.5,0,63.1,0,94.6c0,17.4,0,34.7,0,52.1      c0,0.8,0,1.7,0,2.5c5.9-5.9,11.8-11.8,17.7-17.7c-12.7,0-25.4,0-38,0c-30.3,0-60.6,0-90.8,0c-36.8,0-73.6,0-110.4,0      c-31.7,0-63.4,0-95.1,0c-15.5,0-31.1-0.5-46.6,0c-0.2,0-0.4,0-0.7,0c-9.3,0-18.1,8.1-17.7,17.7      C540.3,484.6,547.7,492.7,557.6,492.7z"/></g></g></g><g><g><g><path d="M466.4,531.3c-12.7,0-25.4,0-38,0c-30.3,0-60.6,0-90.8,0c-36.8,0-73.6,0-110.4,0c-31.7,0-63.4,0-95.1,0      c-15.5,0-31.1-0.5-46.6,0c-0.2,0-0.4,0-0.7,0c-9.6,0-17.7,8.1-17.7,17.7c0,12.5,0,24.9,0,37.4c0,29.6,0,59.2,0,88.8      c0,35.2,0,70.3,0,105.5c0,28.6,0,57.2,0,85.8c0,8.2,0,16.4,0,24.6c0,7.6-0.1,15.2,2.3,22.5c7.2,22.7,28,37.6,51.6,37.7      c5.1,0,10.1,0,15.2,0c24.8,0,49.6,0,74.4,0c34.6,0,69.1,0,103.7,0c32.1,0,64.1,0,96.2,0c17.8,0,35.6,0,53.5,0c0.8,0,1.7,0,2.5,0      c9.6,0,17.7-8.1,17.7-17.7c0-12.7,0-25.4,0-38.2c0-30.6,0-61.1,0-91.7c0-37.2,0-74.3,0-111.5c0-32,0-64,0-96      c0-15.5,0.5-31.2,0-46.7c0-0.2,0-0.4,0-0.7C484.1,539.7,476,530.8,466.4,531.3c-9.6,0.4-17.7,7.8-17.7,17.7      c0,12.7,0,25.4,0,38.2c0,30.6,0,61.1,0,91.7c0,37.2,0,74.3,0,111.5c0,32,0,64,0,96c0,15.5-0.8,31.2,0,46.7c0,0.2,0,0.4,0,0.7      c5.9-5.9,11.8-11.8,17.7-17.7c-12.3,0-24.6,0-37,0c-29.3,0-58.5,0-87.8,0c-34.6,0-69.3,0-103.9,0c-28.3,0-56.7,0-85,0      c-8.4,0-16.7,0-25.1,0c-2,0-4.1,0-6.1,0c-0.4,0-0.8,0-1.2,0c0,0-0.1,0-0.1,0c-0.1,0-2.5,0.1-2.8-0.1c0,0,3.4,0.7,1.3,0.2      c-1.5-0.3-3-0.7-4.5-1.1c-0.4-0.1-2.6-0.6-0.4,0c2.3,0.6-0.2-0.1-0.9-0.5c-1.1-0.6-2.2-1.5-3.4-2c-1.6-0.6,0.7,0.6,1,0.9      c-0.5-0.4-1-0.8-1.5-1.3c-1.3-1.2-2.4-2.5-3.6-3.7c-1.4-1.4,0.7,0.8,0.8,1c-0.3-0.6-0.7-1.1-1.1-1.6c-0.6-1.1-1.2-2.3-1.9-3.4      c-1-1.7,0.5,1,0.5,1.2c-0.2-0.8-0.6-1.7-0.8-2.5c-0.2-0.6-0.3-1.3-0.5-2c-0.1-0.6-0.2-3.3-0.2-1c0,2.1,0.1-1.1,0.1-2.2      c0-0.6,0-1.1,0-1.7c0-6,0-12,0-18c0-25.7,0-51.3,0-77c0-34.3,0-68.6,0-102.9c0-31.5,0-63.1,0-94.6c0-17.4,0-34.7,0-52.1      c0-0.8,0-1.7,0-2.5c-5.9,5.9-11.8,11.8-17.7,17.7c12.7,0,25.4,0,38,0c30.3,0,60.6,0,90.8,0c36.8,0,73.6,0,110.4,0      c31.7,0,63.4,0,95.1,0c15.5,0,31.1,0.5,46.6,0c0.2,0,0.4,0,0.7,0c9.3,0,18.1-8.1,17.7-17.7C483.7,539.4,476.3,531.3,466.4,531.3      z"/></g></g><g><g><path d="M557.6,566.7c12.7,0,25.4,0,38,0c30.3,0,60.6,0,90.8,0c36.8,0,73.6,0,110.4,0c31.7,0,63.4,0,95.1,0      c15.5,0,31.1,0.8,46.6,0c0.2,0,0.4,0,0.7,0c-5.9-5.9-11.8-11.8-17.7-17.7c0,12.3,0,24.5,0,36.8c0,29.2,0,58.3,0,87.5      c0,34.7,0,69.4,0,104c0,28.7,0,57.4,0,86.1c0,8.7,0,17.4,0,26.1c0,2.3,0,4.5,0,6.8c0,0.5,0,1.1,0,1.6c0,0.1,0,0.2,0,0.3      c0,0,0,0,0,0.1c0,0.1,0,1.3,0,1.4c0,3.1-0.1-0.7,0.2-0.6c0.1,0-1,4.5-1,4.6c-0.2,0.6-0.5,1.3-0.6,1.9c0-0.2,1.5-2.9,0.5-1.2      c-0.7,1.1-1.2,2.3-1.9,3.4c-0.3,0.6-0.7,1.1-1.1,1.6c1.1-1.8,1.5-1.6,0,0c-0.9,0.9-1.8,1.9-2.7,2.7c-0.5,0.4-1,0.8-1.5,1.3      c0.3-0.2,2.6-1.5,1-0.9c-1.3,0.5-2.7,1.6-4,2.3c-0.5,0.3-2.3,0.7-0.3,0.2c2.3-0.6-0.6,0.1-1,0.2c-1.3,0.3-2.6,0.6-3.9,0.9      c-2.1,0.5,1.3-0.3,1.3-0.2c0,0.1-2.4,0.1-2.8,0.1c-0.1,0-0.1,0-0.2,0c-0.4,0-0.9,0-1.3,0c-5.6,0-11.2,0-16.8,0      c-25.2,0-50.4,0-75.6,0c-34.2,0-68.4,0-102.6,0c-31.6,0-63.2,0-94.8,0c-17.4,0-34.9,0-52.3,0c-0.8,0-1.7,0-2.5,0      c5.9,5.9,11.8,11.8,17.7,17.7c0-12.7,0-25.4,0-38.2c0-30.6,0-61.1,0-91.7c0-37.2,0-74.3,0-111.5c0-32,0-64,0-96      c0-15.5,0.5-31.2,0-46.7c0-0.2,0-0.4,0-0.7c0-9.3-8.1-18.1-17.7-17.7c-9.6,0.4-17.7,7.8-17.7,17.7c0,12.7,0,25.4,0,38.2      c0,30.6,0,61.1,0,91.7c0,37.2,0,74.3,0,111.5c0,32,0,64,0,96c0,15.5-0.5,31.2,0,46.7c0,0.2,0,0.4,0,0.7      c0,9.6,8.1,17.7,17.7,17.7c12.5,0,25.1,0,37.6,0c29.7,0,59.4,0,89.1,0c35.1,0,70.2,0,105.3,0c28.2,0,56.5,0,84.7,0      c17.5,0,36.6,2,52.9-5.5c18.9-8.7,29.7-28.7,29.8-48.9c0-5.5,0-11,0-16.5c0-25.3,0-50.5,0-75.8c0-34.7,0-69.4,0-104      c0-32,0-64,0-96c0-17.7,0-35.5,0-53.2c0-0.8,0-1.7,0-2.5c0-9.6-8.1-17.7-17.7-17.7c-12.7,0-25.4,0-38,0c-30.3,0-60.6,0-90.8,0      c-36.8,0-73.6,0-110.4,0c-31.7,0-63.4,0-95.1,0c-15.5,0-31.1-0.5-46.6,0c-0.2,0-0.4,0-0.7,0c-9.3,0-18.1,8.1-17.7,17.7      C540.3,558.6,547.7,566.7,557.6,566.7z"/></g></g></g></g><text x="0" y="1039" fill="#000000" font-size="5px" font-weight="bold" font-family="'Helvetica Neue', Helvetica, Arial-Unicode, Arial, Sans-serif">Created by Neha Tyagi</text><text x="0" y="1044" fill="#000000" font-size="5px" font-weight="bold" font-family="'Helvetica Neue', Helvetica, Arial-Unicode, Arial, Sans-serif">from the Noun Project</text></svg>