<svg xmlns="http://www.w3.org/2000/svg" xmlns:xlink="http://www.w3.org/1999/xlink" version="1.1" x="0px" y="0px" viewBox="0 0 100 125" style="enable-background:new 0 0 100 100;" xml:space="preserve"><path d="M54.38,75.16l-15.71-6.32c-0.02-0.01-0.03-0.01-0.05-0.02c-0.68-0.25-1.09-0.83-1.09-1.55v-1.81  c2.25-1.61,3.98-3.88,4.92-6.54h0.24c2.85,0,5.17-2.32,5.17-5.17c0-0.8-0.18-1.55-0.5-2.22v-9.01c0-0.06,0-0.11-0.01-0.17  c-0.34-3.05-1.42-5.31-3.22-6.71c-0.74-0.57-1.58-1-2.54-1.27c0.39-0.58,0.63-1.23,0.71-1.94c0.07-0.7-0.14-1.36-0.61-1.88  c-0.46-0.52-1.1-0.8-1.81-0.8h-15c-2.4,0-4.48,1.11-5.78,3.05h-0.2c-3.87,0-7.01,3.14-7.01,7v11.74c-0.32,0.67-0.5,1.42-0.5,2.21  c0,2.85,2.32,5.17,5.17,5.17h0.24c0.94,2.65,2.67,4.92,4.92,6.53v1.81c0,0.72-0.41,1.3-1.08,1.55c-0.02,0.01-0.03,0.01-0.05,0.02  L4.82,75.19c-2.36,0.95-4.31,2.02-4.31,5.61v12.85c0,1.77,1.44,3.21,3.22,3.21h51.84c1.77,0,3.21-1.44,3.21-3.21V80.81  C58.77,76.92,56.33,75.95,54.38,75.16z M43.17,55.78c0.05-0.45,0.07-0.91,0.07-1.38v-2.65c0.51,0.14,0.94,0.46,1.22,0.89  c0.03,0.05,0.05,0.1,0.08,0.14c0.15,0.29,0.24,0.62,0.24,0.97C44.78,54.74,44.09,55.57,43.17,55.78z M18.91,35.89h1.06  c0.55,0,1.05-0.29,1.33-0.76l0.2-0.35c0.73-1.26,1.93-1.95,3.38-1.95h13.99c-0.54,0.62-1.6,1.07-2.52,1.36  c-0.76,0.25-1.21,1.03-1.03,1.81c0.18,0.78,0.92,1.3,1.72,1.19c2.3-0.31,4.05-0.02,5.2,0.88c1.1,0.86,1.79,2.38,2.04,4.53v6.22  c-0.33-0.11-0.68-0.18-1.04-0.22V45.6c0-0.73-0.36-1.41-0.96-1.8c-0.61-0.41-1.37-0.48-2.03-0.21c-7.25,2.96-11.02,2.6-16.77-1.62  c-0.94-0.69-2.12-0.88-3.23-0.5c-2.08,0.7-3.7,5.06-4.11,7.14c-0.4,0.03-0.78,0.11-1.15,0.23V39.8  C14.99,37.65,16.75,35.89,18.91,35.89z M14.5,53.75c0-0.96,0.66-1.77,1.55-2v2.65c0,0.47,0.02,0.93,0.07,1.38  C15.19,55.57,14.5,54.74,14.5,53.75z M19.13,54.4l0-4.27c0,0,0,0,0,0c0,0,0,0,0,0v-0.71c0.03-0.93,1.39-4.4,2.18-5.04  c0.12-0.03,0.22,0,0.34,0.08c0,0,0,0,0,0c6.24,4.57,11.04,5.26,18.5,2.48v7.45c0,3.72-1.94,6.99-4.86,8.86  c-0.08,0.04-0.15,0.09-0.22,0.14c-1.58,0.96-3.44,1.51-5.42,1.51c-1.99,0-3.86-0.56-5.45-1.52c-0.06-0.04-0.12-0.08-0.18-0.12  C21.08,61.4,19.13,58.13,19.13,54.4z M21.74,71.71c1.88-0.7,3.09-2.44,3.09-4.45v-0.15c1.5,0.57,3.12,0.88,4.81,0.88  c1.69,0,3.31-0.31,4.81-0.88v0.15c0,2,1.21,3.75,3.09,4.45l0.7,0.28c-2.25,2.28-5.35,3.6-8.6,3.6c-3.25,0-6.35-1.32-8.6-3.6  L21.74,71.71z M55.68,93.65c0,0.06-0.06,0.12-0.12,0.12h-9.71v-5.72c0-0.85-0.69-1.55-1.55-1.55c-0.85,0-1.55,0.69-1.55,1.55v5.72  H16.52v-5.72c0-0.85-0.69-1.55-1.55-1.55c-0.85,0-1.55,0.69-1.55,1.55v5.72H3.72c-0.07,0-0.13-0.06-0.13-0.12V80.81  c0-1.64,0.42-1.96,2.37-2.74l12.01-4.84c2.87,3.44,7.14,5.46,11.66,5.46c4.51,0,8.78-2.02,11.65-5.46l11.94,4.81  c2.05,0.82,2.45,1.13,2.45,2.77V93.65z M93.03,33.51h-2.99c0.28-1.13,0.43-2.31,0.43-3.5c0-7.97-6.48-14.45-14.45-14.45  S61.58,22.04,61.58,30c0,1.19,0.15,2.37,0.43,3.5h-2.99c-1.92,0-3.47,1.56-3.47,3.47v6.5l-4.74,2.74c-0.79,0.44-1.26,1.25-1.26,2.17  c0,0.9,0.46,1.71,1.24,2.16l4.76,2.74v6.49c0,1.92,1.56,3.47,3.47,3.47h34.01c1.92,0,3.48-1.56,3.48-3.47V36.98  C96.5,35.06,94.95,33.51,93.03,33.51z M76.02,18.65c6.26,0,11.36,5.09,11.36,11.36c0,2.94-1.12,5.74-3.17,7.86  c-1.69,1.76-2.72,3.81-3.07,6.12H70.9c-0.36-2.31-1.39-4.36-3.08-6.12c-2.04-2.12-3.16-4.92-3.16-7.86  C64.67,23.74,69.76,18.65,76.02,18.65z M80.99,50.06c0,0.1-0.08,0.18-0.18,0.18h-9.6c-0.09,0-0.18-0.08-0.18-0.18v-2.98h9.95V50.06z   M78.61,53.32c-0.59,0.77-1.53,1.27-2.56,1.27c-1.03,0-1.96-0.5-2.56-1.27H78.61z M93.41,59.79c0,0.21-0.18,0.38-0.38,0.38H59.02  c-0.21,0-0.38-0.18-0.38-0.38v-6.84c0-0.91-0.47-1.72-1.25-2.16l-4.16-2.4l4.16-2.4c0.78-0.45,1.24-1.26,1.24-2.16v-6.85  c0-0.21,0.18-0.38,0.38-0.38h4.15c0.63,1.24,1.45,2.38,2.43,3.41c1.59,1.65,2.36,3.57,2.36,5.86v4.19c0,1.36,0.84,2.53,2.02,3.02  c0.76,2.66,3.23,4.61,6.08,4.61c2.86,0,5.34-1.97,6.09-4.65c1.14-0.51,1.94-1.65,1.94-2.98v-4.19c0-2.29,0.77-4.21,2.36-5.86  c0.99-1.03,1.8-2.18,2.44-3.41h4.15c0.2,0,0.38,0.18,0.38,0.38V59.79z M69.64,30.41c-0.6-0.6-0.6-1.58,0-2.19  c0.6-0.6,1.58-0.6,2.19,0l2.89,2.89l5.5-5.5c0.6-0.6,1.58-0.6,2.19,0c0.6,0.6,0.6,1.58,0,2.19l-6.59,6.59  c-0.3,0.3-0.7,0.45-1.09,0.45s-0.79-0.15-1.09-0.45L69.64,30.41z M74.48,10.72V4.68c0-0.85,0.69-1.55,1.55-1.55s1.55,0.69,1.55,1.55  v6.03c0,0.85-0.69,1.55-1.55,1.55S74.48,11.57,74.48,10.72z M84.33,12.53l3.02-5.23c0.43-0.74,1.37-0.99,2.11-0.57  c0.74,0.43,0.99,1.37,0.57,2.11L87,14.08c-0.29,0.5-0.81,0.77-1.34,0.77c-0.26,0-0.53-0.07-0.77-0.21  C84.15,14.21,83.9,13.27,84.33,12.53z M98.72,18.68L93.5,21.7c-0.24,0.14-0.51,0.21-0.77,0.21c-0.53,0-1.05-0.28-1.34-0.77  c-0.43-0.74-0.17-1.68,0.57-2.11L97.18,16c0.74-0.43,1.68-0.17,2.11,0.57C99.72,17.31,99.46,18.25,98.72,18.68z M62.02,8.85  c-0.43-0.74-0.17-1.68,0.57-2.11c0.74-0.43,1.68-0.17,2.11,0.57l3.01,5.23c0.43,0.74,0.17,1.68-0.57,2.11  c-0.24,0.14-0.51,0.21-0.77,0.21c-0.53,0-1.05-0.28-1.34-0.77L62.02,8.85z M52.76,16.57c0.43-0.74,1.37-0.99,2.11-0.56l5.22,3.02  c0.74,0.43,0.99,1.37,0.56,2.11c-0.29,0.5-0.81,0.77-1.34,0.77c-0.26,0-0.53-0.07-0.77-0.21l-5.22-3.02  C52.58,18.25,52.33,17.31,52.76,16.57z"/><text x="0" y="115" fill="#000000" font-size="5px" font-weight="bold" font-family="'Helvetica Neue', Helvetica, Arial-Unicode, Arial, Sans-serif">Created by Maryati</text><text x="0" y="120" fill="#000000" font-size="5px" font-weight="bold" font-family="'Helvetica Neue', Helvetica, Arial-Unicode, Arial, Sans-serif">from the Noun Project</text></svg>