<svg xmlns="http://www.w3.org/2000/svg" version="1.1" viewBox="-5.0 -10.0 110.0 135.0">
 <path d="m48.719 34.656c-3.3516 0-6.0781 2.7266-6.0781 6.0781 0 3.543 2.9453 8.1133 6.0781 8.1133 3.1289 0 6.0742-4.5703 6.0742-8.1133 0-3.3516-2.7227-6.0781-6.0742-6.0781zm0 16.246c-4.5039 0-8.1328-5.5625-8.1328-10.168 0-4.4844 3.6484-8.1328 8.1328-8.1328s8.1289 3.6484 8.1289 8.1328c0 4.6055-3.6289 10.168-8.1289 10.168z" fill-rule="evenodd"/>
 <path d="m41.613 41.762c-0.51172 0-0.95312-0.38281-1.0195-0.90234-0.066406-0.5625 0.33203-1.0742 0.89453-1.1445 5.6523-0.69141 8.5312-4.5625 8.5625-4.6016 0.23438-0.32031 0.63672-0.48047 1.0273-0.40625s0.70312 0.36719 0.80469 0.75391c0.085938 0.32422 0.91406 3.1719 3.5273 2.5977 0.55469-0.12109 1.1016 0.23047 1.2227 0.78516 0.12109 0.55469-0.22656 1.1016-0.78516 1.2227-2.6836 0.58984-4.3828-0.91797-5.2812-2.4648-1.4844 1.4336-4.4062 3.6172-8.8242 4.1562-0.042969 0.003907-0.085938 0.007813-0.125 0.007813z" fill-rule="evenodd"/>
 <path d="m45.855 53.914c-0.56641 0-1.0273-0.46094-1.0273-1.0273v-3.9531c0-0.56641 0.46094-1.0273 1.0273-1.0273 0.57031 0 1.0273 0.46094 1.0273 1.0273v3.9531c0 0.56641-0.45703 1.0273-1.0273 1.0273zm5.7266 0c-0.56641 0-1.0273-0.46094-1.0273-1.0273v-3.9531c0-0.56641 0.46094-1.0273 1.0273-1.0273 0.56641 0 1.0273 0.46094 1.0273 1.0273v3.9531c0 0.56641-0.46094 1.0273-1.0273 1.0273z" fill-rule="evenodd"/>
 <path d="m38.371 68.203h20.699v-7.1445c0-3.9414-3.207-7.1445-7.1445-7.1445h-6.4062c-3.9414 0-7.1445 3.207-7.1445 7.1484v7.1445zm21.727 2.0547h-22.754c-0.56641 0-1.0273-0.46094-1.0273-1.0273v-8.1758c0-5.0742 4.125-9.2031 9.1992-9.2031h6.4062c5.0742 0 9.1992 4.1289 9.1992 9.2031v8.1719c0 0.56641-0.46094 1.0273-1.0273 1.0273z" fill-rule="evenodd"/>
 <path d="m42.281 70.262c-0.56641 0-1.0273-0.46094-1.0273-1.0273v-4.7852c0-0.56641 0.46094-1.0273 1.0273-1.0273s1.0273 0.46094 1.0273 1.0273v4.7852c0 0.56641-0.46094 1.0273-1.0273 1.0273z" fill-rule="evenodd"/>
 <path d="m55.16 70.262c-0.56641 0-1.0273-0.46094-1.0273-1.0273v-4.7852c0-0.56641 0.46094-1.0273 1.0273-1.0273s1.0273 0.46094 1.0273 1.0273v4.7852c0 0.56641-0.46094 1.0273-1.0273 1.0273z" fill-rule="evenodd"/>
 <path d="m28.398 31.797c-3.3516 0-6.0781 2.7266-6.0781 6.0781 0 3.543 2.9492 8.1133 6.0781 8.1133 3.1289 0 6.0781-4.5703 6.0781-8.1133 0-3.3516-2.7266-6.0781-6.0781-6.0781zm0 16.246c-4.5039 0-8.1328-5.5625-8.1328-10.168 0-4.4844 3.6484-8.1328 8.1328-8.1328 4.4844 0 8.1328 3.6484 8.1328 8.1328 0 4.6055-3.6289 10.168-8.1328 10.168z" fill-rule="evenodd"/>
 <path d="m21.293 38.898c-0.51172 0-0.95312-0.38281-1.0195-0.90234-0.066407-0.5625 0.33203-1.0742 0.89453-1.1445 5.6953-0.69531 8.5312-4.5625 8.5625-4.6016 0.23047-0.32422 0.63281-0.48438 1.0234-0.41016 0.39453 0.074218 0.70703 0.36719 0.80469 0.75781 0.085937 0.32422 0.91406 3.1719 3.5234 2.5977 0.55469-0.12109 1.1016 0.23047 1.2227 0.78516 0.12109 0.55469-0.22656 1.1016-0.78516 1.2227-2.6836 0.58984-4.3828-0.91797-5.2812-2.4648-1.4844 1.4336-4.4102 3.6172-8.8281 4.1562-0.042968 0.003907-0.082031 0.007813-0.125 0.007813z" fill-rule="evenodd"/>
 <path d="m25.535 51.051c-0.56641 0-1.0273-0.46094-1.0273-1.0273v-3.9531c0-0.56641 0.46094-1.0273 1.0273-1.0273s1.0273 0.46094 1.0273 1.0273v3.9531c0 0.56641-0.46094 1.0273-1.0273 1.0273zm5.7227 0c-0.56641 0-1.0273-0.46094-1.0273-1.0273v-3.9531c0-0.56641 0.46094-1.0273 1.0273-1.0273 0.56641 0 1.0273 0.46094 1.0273 1.0273v3.9531c0 0.56641-0.46094 1.0273-1.0273 1.0273z" fill-rule="evenodd"/>
 <path d="m37.344 67.398h-20.32c-0.56641 0-1.0273-0.46094-1.0273-1.0273v-8.1758c0-5.0742 4.1289-9.2031 9.2031-9.2031h6.4062c3.9922 0 7.5078 2.5586 8.75 6.3672 0.17578 0.53906-0.11719 1.1211-0.66016 1.2969-0.53906 0.17578-1.1172-0.11719-1.2969-0.66016-0.96484-2.9609-3.6953-4.9492-6.7969-4.9492h-6.4062c-3.9414 0-7.1484 3.207-7.1484 7.1445v7.1445h19.293c0.56641 0 1.0273 0.46094 1.0273 1.0273 0 0.56641-0.46094 1.0273-1.0273 1.0273z" fill-rule="evenodd"/>
 <path d="m21.961 67.398c-0.56641 0-1.0273-0.46094-1.0273-1.0273v-4.7852c0-0.56641 0.46094-1.0273 1.0273-1.0273 0.56641 0 1.0273 0.46094 1.0273 1.0273v4.7852c0 0.56641-0.46094 1.0273-1.0273 1.0273z" fill-rule="evenodd"/>
 <path d="m34.836 67.398c-0.56641 0-1.0273-0.46094-1.0273-1.0273v-4.7852c0-0.56641 0.46094-1.0273 1.0273-1.0273 0.56641 0 1.0273 0.46094 1.0273 1.0273v4.7852c0 0.56641-0.46094 1.0273-1.0273 1.0273z" fill-rule="evenodd"/>
 <path d="m69.039 31.797c-3.3516 0-6.0781 2.7266-6.0781 6.0781 0 3.543 2.9492 8.1133 6.0781 8.1133 3.1289 0 6.0781-4.5703 6.0781-8.1133 0-3.3516-2.7266-6.0781-6.0781-6.0781zm0 16.246c-4.5039 0-8.1289-5.5625-8.1289-10.168 0-4.4844 3.6484-8.1328 8.1289-8.1328 4.4844 0 8.1328 3.6484 8.1328 8.1328 0 4.6055-3.6289 10.168-8.1328 10.168z" fill-rule="evenodd"/>
 <path d="m61.938 38.898c-0.51172 0-0.95703-0.38281-1.0195-0.90234-0.070313-0.5625 0.33203-1.0742 0.89453-1.1445 5.6523-0.69141 8.5312-4.5625 8.5625-4.6016 0.23438-0.32031 0.63672-0.48047 1.0273-0.40625s0.70312 0.36719 0.80469 0.75391c0.082031 0.32422 0.91406 3.1719 3.5234 2.5977 0.55469-0.12109 1.1016 0.23047 1.2227 0.78516 0.125 0.55469-0.22656 1.1016-0.78516 1.2227-2.6836 0.58984-4.3828-0.91797-5.2812-2.4648-1.4844 1.4336-4.4102 3.6172-8.8281 4.1562-0.039063 0.003907-0.082032 0.007813-0.125 0.007813z" fill-rule="evenodd"/>
 <path d="m66.18 51.051c-0.56641 0-1.0273-0.46094-1.0273-1.0273v-3.9531c0-0.56641 0.46094-1.0273 1.0273-1.0273 0.56641 0 1.0273 0.46094 1.0273 1.0273v3.9531c0 0.56641-0.46094 1.0273-1.0273 1.0273zm5.7227 0c-0.56641 0-1.0273-0.46094-1.0273-1.0273v-3.9531c0-0.56641 0.46094-1.0273 1.0273-1.0273 0.57031 0 1.0273 0.46094 1.0273 1.0273v3.9531c0 0.56641-0.45703 1.0273-1.0273 1.0273z" fill-rule="evenodd"/>
 <path d="m80.418 67.398h-20.32c-0.56641 0-1.0273-0.46094-1.0273-1.0273s0.46094-1.0273 1.0273-1.0273h19.293v-7.1445c0-3.9414-3.207-7.1445-7.1445-7.1445h-6.4062c-3.1016 0-5.832 1.9883-6.7969 4.9492-0.17578 0.53906-0.75781 0.83203-1.2969 0.66016-0.53906-0.17578-0.83594-0.75781-0.66016-1.2969 1.2422-3.8086 4.7578-6.3672 8.75-6.3672h6.4062c5.0742 0 9.1992 4.1289 9.1992 9.2031v8.1719c0 0.56641-0.46094 1.0273-1.0273 1.0273z" fill-rule="evenodd"/>
 <path d="m62.602 67.398c-0.56641 0-1.0273-0.46094-1.0273-1.0273v-4.7852c0-0.56641 0.46094-1.0273 1.0273-1.0273 0.56641 0 1.0273 0.46094 1.0273 1.0273v4.7852c0 0.56641-0.46094 1.0273-1.0273 1.0273z" fill-rule="evenodd"/>
 <path d="m75.48 67.398c-0.56641 0-1.0273-0.46094-1.0273-1.0273v-4.7852c0-0.56641 0.46094-1.0273 1.0273-1.0273 0.56641 0 1.0273 0.46094 1.0273 1.0273v4.7852c0 0.56641-0.46094 1.0273-1.0273 1.0273z" fill-rule="evenodd"/>
 <path d="m84.883 51.59 3.5938 6.2227 3.5938-6.2227zm3.5938 9.3086c-0.36719 0-0.70703-0.19531-0.89062-0.51172l-5.375-9.3086c-0.18359-0.31641-0.18359-0.71094 0-1.0273 0.18359-0.31641 0.52344-0.51562 0.89062-0.51562h10.746c0.36719 0 0.70703 0.19531 0.89062 0.51562 0.18359 0.31641 0.18359 0.71094 0 1.0273l-5.375 9.3047c-0.18359 0.31641-0.52344 0.51563-0.88672 0.51563z" fill-rule="evenodd"/>
 <path d="m48.719 93.598c-11.645 0-22.594-4.5352-30.828-12.77s-12.77-19.184-12.77-30.828 4.5352-22.594 12.77-30.828 19.184-12.77 30.828-12.77 22.594 4.5352 30.828 12.77 12.77 19.184 12.77 30.828c0 0.25781-0.023437 0.51562-0.078125 0.76562-0.11328 0.55469-0.65625 0.91406-1.2109 0.80078-0.55469-0.11328-0.91406-0.65625-0.80469-1.2109 0.023438-0.11719 0.035156-0.23828 0.035156-0.35938 0-11.098-4.3203-21.527-12.168-29.375s-18.277-12.168-29.375-12.168-21.531 4.3203-29.375 12.168c-7.8477 7.8477-12.168 18.277-12.168 29.375s4.3203 21.527 12.168 29.375c7.8438 7.8477 18.277 12.168 29.375 12.168 0.98438 0 1.7852-0.80078 1.7852-1.7852s-0.80078-1.7852-1.7852-1.7852c-10.145 0-19.68-3.9492-26.852-11.121s-11.121-16.707-11.121-26.852c0-10.145 3.9492-19.68 11.121-26.852s16.707-11.121 26.852-11.121c10.145 0 19.68 3.9492 26.852 11.121s11.121 16.707 11.121 26.852c0 0.12109 0.011719 0.24219 0.035156 0.35938 0.11328 0.55469-0.24609 1.0977-0.80469 1.2109-0.55469 0.11328-1.0977-0.24609-1.2109-0.80469-0.050781-0.25-0.078125-0.50781-0.078125-0.76562 0-9.5938-3.7344-18.613-10.52-25.398s-15.801-10.52-25.395-10.52-18.613 3.7344-25.398 10.52-10.52 15.805-10.52 25.398 3.7344 18.613 10.52 25.398c6.7852 6.7852 15.801 10.52 25.398 10.52 2.1172 0 3.8398 1.7227 3.8398 3.8398 0 2.1172-1.7227 3.8398-3.8398 3.8398z" fill-rule="evenodd"/>
<text x="0.0" y="117.5" font-size="5.0" font-weight="bold" font-family="Arbeit Regular, Helvetica, Arial-Unicode, Arial, Sans-serif" fill="#000000">Created by Circlon Tech</text><text x="0.0" y="122.5" font-size="5.0" font-weight="bold" font-family="Arbeit Regular, Helvetica, Arial-Unicode, Arial, Sans-serif" fill="#000000">from Noun Project</text></svg>