<svg xmlns="http://www.w3.org/2000/svg" enable-background="new 0 0 512 512" viewBox="0 0 512 640" x="0px" y="0px"><g><path d="m121 351.429h-110c-5.523 0-10 4.478-10 10v140.571c0 5.522 4.477 10 10 10h110c5.522 0 10-4.478 10-10v-140.571c0-5.523-4.478-10-10-10zm-10 20v40.245h-90v-40.245zm-90 120.571v-60.326h90v60.326z"/><path d="m311 261.061h-110c-5.523 0-10 4.478-10 10v230.939c0 5.522 4.477 10 10 10h110c5.522 0 10-4.478 10-10v-230.939c0-5.522-4.478-10-10-10zm-10 20v40.244h-90v-40.244zm-90 210.939v-150.694h90v150.694z"/><path d="m501 170.694h-10c0-22.707 0-138.006 0-160.694 0-5.523-4.478-10-10-10h-130c-3.685 0-7.07 2.026-8.812 5.273-1.741 3.247-1.557 7.188.481 10.258l26.327 39.653-26.327 39.651c-2.038 3.069-2.223 7.011-.481 10.258s5.128 5.273 8.812 5.273h120v60.327h-80c-5.522 0-10 4.478-10 10v321.307c0 5.522 4.478 10 10 10h110c5.522 0 10-4.478 10-10v-321.306c0-5.522-4.478-10-10-10zm-131.356-80.327 19.688-29.651c2.226-3.352 2.226-7.711 0-11.062l-19.689-29.654h101.357v70.367zm121.356 100.327v40.244h-90v-40.244zm-90 301.306v-241.061h90v241.061z"/><path d="m95.393 237.993c6.579-7.153 10.607-16.701 10.607-27.177 0-22.123-17.944-40.122-40-40.122s-40 17.999-40 40.122c0 10.476 4.028 20.023 10.607 27.177-21.107 10.751-35.607 32.68-35.607 57.946v25.327c0 5.522 4.477 10 10 10h110c5.522 0 10-4.478 10-10v-25.327c0-25.266-14.5-47.195-35.607-57.946zm-49.393-27.177c0-11.096 8.972-20.122 20-20.122s20 9.026 20 20.122-8.972 20.122-20 20.122c-11.028.001-20-9.026-20-20.122zm65 100.45h-90v-15.327c0-24.814 20.186-45 45-45 24.813 0 45 20.186 45 45z"/><path d="m349.552 140.03-45.462-15.344c-5.231-1.767-10.907 1.045-12.673 6.276-1.767 5.233 1.044 10.907 6.276 12.673l22.68 7.655-159.191 79.416c-4.942 2.466-6.95 8.471-4.484 13.412 2.465 4.942 8.469 6.949 13.412 4.484l159.093-79.367-7.613 22.743c-2.173 6.488 2.678 13.178 9.483 13.178 4.182-.001 8.081-2.645 9.481-6.828l15.281-45.647c1.729-5.164-1.026-10.88-6.283-12.651z"/></g><text x="0" y="527" fill="#000000" font-size="5px" font-weight="bold" font-family="'Helvetica Neue', Helvetica, Arial-Unicode, Arial, Sans-serif">Created by Isyana Bam</text><text x="0" y="532" fill="#000000" font-size="5px" font-weight="bold" font-family="'Helvetica Neue', Helvetica, Arial-Unicode, Arial, Sans-serif">from the Noun Project</text></svg>